<svg width="288" height="214" viewBox="0 0 288 214" fill="none" xmlns="http://www.w3.org/2000/svg">
<g clip-path="url(#clip0)">
<path d="M239.614 159.001C228.584 171.556 211.793 180.512 188.652 181.757C172.876 182.607 161.906 179.702 151.57 176.117C135.625 170.591 121.174 163.461 92.8977 166.026C90.0126 166.286 86.9824 166.651 83.7923 167.126C82.8822 167.271 81.9872 167.406 81.1072 167.516C69.5717 169.036 60.3412 168.011 53.1409 165.171C48.4907 163.346 44.6905 160.766 41.6604 157.631C25.9697 141.41 30.8499 110.344 45.8806 91.7378C77.482 52.7111 158.561 -9.48671 239.894 71.7219C260.62 92.4478 262.2 133.285 239.614 159.001Z" fill="#EEFFF3"/>
<path d="M187.977 163.441H230.004L236.269 108.764L191.497 108.039L187.977 163.441Z" fill="#64E69A"/>
<path d="M192.312 105.608L188.762 163.441H124.884L122.154 104.218L156.836 62.0413L192.312 105.608Z" fill="#99FFC3"/>
<path d="M176.791 163.441L180.712 117.229C180.777 116.434 180.187 115.754 179.432 115.754L154.775 115.044C154.005 115.044 153.38 115.699 153.37 116.509L153.575 163.441H176.791Z" fill="white"/>
<path d="M156.216 59.6363L206.353 63.1765C207.618 63.2665 208.773 63.9115 209.528 64.9466L242.409 110.044C243.024 110.889 242.429 112.094 241.394 112.094L197.357 112.174C194.172 112.179 191.162 110.689 189.202 108.138L154.49 62.9365C153.42 61.5414 154.48 59.5113 156.216 59.6363Z" fill="#189C4E"/>
<path d="M154.37 60.6012L117.814 106.523C117.134 107.388 117.274 108.678 118.124 109.358C118.929 110.003 120.074 109.858 120.714 109.033L157.491 64.0813L154.37 60.6012Z" fill="#189C4E"/>
<path d="M206.268 130.87H213.193L213.958 122.039H207.033L206.268 130.87Z" fill="#ACEBC6"/>
<path d="M214.958 122.039L214.188 130.87H221.113L221.883 122.039H214.958Z" fill="#ACEBC6"/>
<path d="M205.423 140.61H212.348L213.113 131.78H206.188L205.423 140.61Z" fill="#ACEBC6"/>
<path d="M213.343 140.61H220.268L221.038 131.78H214.113L213.343 140.61Z" fill="#ACEBC6"/>
<path d="M178.222 163.441L180.712 117.229C180.782 116.189 180.002 115.699 179.452 115.754L165.246 118.999C164.756 118.999 164.356 119.654 164.351 120.464L163.451 163.441H178.222Z" fill="#189C4E"/>
<path d="M166.571 140.6C167.203 140.6 167.716 139.957 167.716 139.165C167.716 138.372 167.203 137.73 166.571 137.73C165.939 137.73 165.426 138.372 165.426 139.165C165.426 139.957 165.939 140.6 166.571 140.6Z" fill="#D1FFD1"/>
<path d="M239.614 159.001C228.584 171.556 211.793 180.512 188.652 181.757C172.876 182.607 161.906 179.702 151.57 176.116C135.625 170.591 121.174 163.461 92.8977 166.026C90.0126 166.286 86.9824 166.651 83.7923 167.126C82.8823 167.271 81.9872 167.406 81.1072 167.516C69.5717 169.036 60.3413 168.011 53.1409 165.171C78.4371 161.651 168.301 150.525 239.614 159.001Z" fill="#74B38E"/>
<path d="M112.009 152.325C101.923 151.77 93.6177 145.52 89.7675 135.785C87.4274 129.864 86.4974 124.564 86.4574 124.344L100.633 121.884C100.638 121.924 101.373 126.009 103.148 130.494C105.348 136.05 111.569 140.03 117.449 138.565L126.289 135.98L129.039 147C129.034 147 117.469 152.625 112.009 152.325Z" fill="#FFC8BF"/>
<path d="M99.958 127.864C94.0127 142.865 92.7977 156.691 92.8977 166.026C90.0126 166.286 86.9824 166.651 83.7923 167.126C82.8822 167.271 81.9872 167.406 81.1072 167.516C62.1263 170.016 49.3907 165.626 41.6604 157.631C41.9654 146.79 44.4505 132.26 53.3359 118.049C56.9661 112.234 60.1562 108.308 66.4365 106.328C77.112 102.958 80.7971 101.443 92.8977 106.978C97.2379 108.964 100.638 113.644 101.053 118.779C101.303 121.859 101.408 124.194 99.958 127.864Z" fill="#1BAA56"/>
<path d="M60.1713 155.22C52.6559 151.935 50.0508 145.745 49.2608 137.325C48.4157 128.314 54.431 119.014 58.3462 112.664C60.0213 109.943 74.2219 121.034 72.6018 123.184C69.1217 127.814 64.2264 133.364 64.6565 137.965C65.0865 142.53 67.8566 143.485 72.8618 144.38L88.4425 146.45L87.9275 156.77C87.9325 156.77 67.4266 158.251 60.1713 155.22Z" fill="#FBD2CB"/>
<path d="M122.914 138.32L125.454 136.165C125.454 136.165 127.229 135.635 128.194 133.085C129.159 130.534 129.549 128.669 131.689 128.359C133.83 128.049 139.735 126.799 139.735 126.799C139.735 126.799 140.98 129.574 139.14 130.509C137.355 131.415 134.13 132.67 134.13 132.67L134.935 139.33L133.395 145.15L128.829 147.12L122.914 138.32Z" fill="#FFC8BF"/>
<path d="M131.699 134.065L133.6 132.425C133.6 132.425 139.505 131.89 142.905 130.804C146.3 129.719 149.05 128.819 149.05 128.819C149.05 128.819 150.745 131.349 148.635 132.83C148.635 132.83 150.32 134.87 148.65 136.945C148.65 136.945 150.02 138.94 147.65 140.51C147.65 140.51 148.505 142.61 146.57 143.59C146.57 143.59 140.455 146.335 130.309 145.3L131.699 134.065Z" fill="#FFC8BF"/>
<path d="M80.6821 148.005L83.8673 146.485C83.8673 146.485 85.8774 146.37 87.4724 144.105C89.0675 141.84 89.8975 140.11 92.2426 140.29C94.5928 140.47 101.578 140.285 101.578 140.285C101.578 140.285 102.303 143.245 100.123 143.77C98.2829 144.21 94.8828 145.12 94.8828 145.12L93.2727 151.73L87.9725 156.791L85.2273 156.921L80.6821 148.005Z" fill="#FBD2CB"/>
<path d="M90.9926 145.855L93.3777 144.69C93.3777 144.69 99.798 145.51 103.658 145.225C107.518 144.94 110.649 144.685 110.649 144.685C110.649 144.685 111.899 147.54 109.318 148.501C109.318 148.501 110.664 150.876 108.423 152.521C108.423 152.521 109.443 154.781 106.568 155.771C106.568 155.771 107.018 158.016 104.738 158.531C104.738 158.531 97.6129 159.821 87.0175 156.496L90.9926 145.855Z" fill="#FBD2CB"/>
<path d="M65.5014 126.744C70.3949 126.744 74.3618 122.777 74.3618 117.884C74.3618 112.99 70.3949 109.023 65.5014 109.023C60.608 109.023 56.6411 112.99 56.6411 117.884C56.6411 122.777 60.608 126.744 65.5014 126.744Z" fill="#FBD2CB"/>
<path fill-rule="evenodd" clip-rule="evenodd" d="M81.3172 100.863L78.3771 104.403C78.3771 104.403 82.3473 107.268 84.1873 110.469C85.4924 112.739 87.0625 114.679 90.2476 114.994C93.4327 115.309 96.4779 113.604 95.2928 111.409C94.1078 109.214 94.9778 109.269 94.9778 109.269L81.3172 100.863Z" fill="#F2B6AC"/>
<path fill-rule="evenodd" clip-rule="evenodd" d="M61.5713 84.7127C58.5111 83.0826 56.5461 79.5625 57.1111 75.7323C57.5811 72.4822 59.5712 69.872 62.3063 68.742C62.2763 67.8169 62.3613 66.8919 62.4413 65.8469C63.7264 55.8664 73.4318 48.8411 84.4373 49.7461C86.7574 46.551 90.9726 44.6759 95.4978 45.3309C99.563 45.891 102.988 48.2011 104.598 51.3812C105.638 51.3462 106.793 51.4212 107.843 51.6212C108.423 51.7162 109.118 51.8112 109.703 51.9062C111.178 51.0462 112.899 50.6462 114.754 50.9312C118.819 51.4912 121.824 54.9714 121.959 59.1266C124.964 62.6067 126.614 67.0619 126.309 71.6921C130.519 73.1672 133.209 77.7024 132.559 82.4626C131.909 87.2228 128.214 90.813 123.839 91.303C124.104 92.333 124.139 93.3731 123.944 94.4181C123.294 99.1783 119.134 102.668 114.489 102.013C114.374 102.018 114.259 102.023 114.139 101.908C112.159 104.864 108.638 106.714 105.038 106.259C99.818 105.624 96.0678 100.548 96.8028 94.9781C97.1779 92.308 98.4829 89.9529 100.398 88.3879C97.8329 87.7778 95.3728 86.7078 93.3627 85.2727C91.6576 86.1378 89.8275 86.6628 87.8774 87.0728C88.6225 88.6679 88.9175 90.618 88.6375 92.478C87.8974 98.0483 83.0572 101.908 77.837 101.273C74.8219 100.913 72.3318 99.0283 70.8617 96.5382C70.0567 96.6832 69.1366 96.7132 68.3216 96.6232C63.7964 96.0782 60.5312 91.683 61.1763 86.8078C61.0413 86.1178 61.2413 85.3027 61.5713 84.7127Z" fill="#3A434E"/>
<path fill-rule="evenodd" clip-rule="evenodd" d="M92.3076 109.754C82.2122 107.764 75.4319 97.7585 77.462 87.558L78.942 79.8577C79.9371 74.8075 84.8623 71.4523 89.9125 72.4524L108.508 76.0975C113.559 77.0926 116.914 82.0178 115.914 87.068L114.434 94.7684C112.404 104.964 102.508 111.784 92.3076 109.754Z" fill="#FBD2CB"/>
<path fill-rule="evenodd" clip-rule="evenodd" d="M89.3475 90.2029C86.9524 89.6929 84.6773 91.1929 84.3123 93.518C83.8423 95.8031 85.3823 97.9732 87.7774 98.4832C90.1725 98.9933 92.4476 97.4932 92.8127 95.1681C93.2827 92.883 91.7826 90.6079 89.3475 90.2029Z" fill="#E51685" fill-opacity="0.2"/>
<path fill-rule="evenodd" clip-rule="evenodd" d="M111.579 96.1681C112.484 96.3781 113.204 96.7681 113.694 97.4381C112.894 99.6082 111.774 101.653 110.403 103.363C110.293 103.323 110.293 103.323 110.188 103.283C108.118 102.888 106.863 100.953 107.213 98.9882C107.568 97.0331 109.508 95.7781 111.579 96.1681Z" fill="#E51685" fill-opacity="0.2"/>
<path fill-rule="evenodd" clip-rule="evenodd" d="M78.437 83.2376C74.9869 82.5826 71.7017 84.8227 71.0067 88.3779C70.3516 91.828 72.5467 95.2232 76.0019 95.8732C79.4521 96.5282 82.7372 94.2881 83.4322 90.733C84.0823 87.2828 81.8872 83.8927 78.437 83.2376Z" fill="#3A434E"/>
<path fill-rule="evenodd" clip-rule="evenodd" d="M86.4774 65.3967C82.1172 64.5316 77.827 67.5068 76.922 71.972C76.0169 76.4372 78.8421 80.8024 83.3473 81.5974C87.7024 82.4624 91.9976 79.4873 92.9027 75.0221C93.6577 70.6269 90.8326 66.2617 86.4774 65.3967Z" fill="#3A434E"/>
<path fill-rule="evenodd" clip-rule="evenodd" d="M114.284 74.7672L98.9079 71.077C98.0029 70.867 97.0329 71.492 96.7829 72.5071L95.7428 76.6773C95.4928 77.6923 96.1178 78.6623 97.0279 78.8724L112.404 82.5625C113.309 82.7725 114.279 82.1475 114.529 81.1325L115.569 76.9623C115.669 76.0172 115.194 74.9772 114.284 74.7672Z" fill="#1BAA56"/>
<path fill-rule="evenodd" clip-rule="evenodd" d="M115.124 72.4921L100.543 68.9719L98.4479 77.6773C98.1479 79.1674 98.938 80.6874 100.538 81.0325L109.823 83.2176C111.314 83.5176 112.769 82.5775 113.174 81.1275L115.124 72.4921Z" fill="#3A434E"/>
<path d="M85.8674 54.1113C84.7323 54.1863 83.5722 54.9914 82.7322 56.2814C81.7822 57.5315 81.1821 59.1566 80.9071 60.9016C80.7421 62.6867 80.9121 64.2268 81.6122 65.3468C82.2022 66.4269 83.1622 67.1469 84.2973 67.0719C85.4323 66.9969 86.5924 66.1919 87.4324 64.9018C88.3825 63.6518 88.9825 62.0267 89.2575 60.2816C89.4225 58.4965 89.2525 56.9565 88.5525 55.8364C88.0024 54.6514 86.9974 54.0363 85.8674 54.1113ZM83.3872 57.5065C84.0723 56.6514 84.7823 56.0514 85.6623 56.0064C86.5424 55.9614 87.1124 56.4164 87.5624 57.1965C88.0124 57.9765 88.1975 59.1516 87.9724 60.4266C87.8574 61.7367 87.3124 62.8917 86.7374 63.7868C86.0524 64.6418 85.3423 65.2418 84.4623 65.2868C83.5822 65.3318 83.0122 64.8768 82.5622 64.0968C82.1122 63.3167 81.9272 62.1417 82.1522 60.8666C82.2622 59.5516 82.7022 58.3615 83.3872 57.5065Z" fill="#1BAA56"/>
<path d="M120.809 65.9419C119.784 66.0569 118.704 66.6419 117.939 67.7169C117.174 68.792 116.589 70.052 116.394 71.5771C116.199 73.1072 116.454 74.4272 117.079 75.3973C117.709 76.3673 118.494 76.9023 119.629 76.8273C120.654 76.7123 121.734 76.1273 122.499 75.0523C123.264 73.9772 123.849 72.7171 124.044 71.1921C124.239 69.662 123.984 68.342 123.359 67.3719C122.844 66.4419 121.944 65.8668 120.809 65.9419ZM118.569 68.687C119.104 67.9019 119.884 67.4469 120.614 67.4719C121.384 67.3869 121.954 67.8419 122.444 68.517C122.824 69.152 123.049 70.217 122.909 71.2721C122.769 72.3271 122.409 73.3022 121.764 74.0522C121.229 74.8372 120.449 75.2923 119.719 75.2673C118.949 75.3523 118.379 74.8972 117.889 74.2222C117.509 73.5872 117.284 72.5221 117.424 71.4671C117.569 70.407 118.034 69.472 118.569 68.687Z" fill="#1BAA56"/>
<path d="M118.489 92.473C117.759 92.453 117.084 92.9431 116.444 93.6881C115.949 94.3681 115.479 95.3032 115.339 96.3582C115.199 97.4133 115.349 98.3333 115.844 99.0033C116.224 99.6384 116.839 99.9834 117.569 100.008C118.299 100.033 118.974 99.5384 119.614 98.7933C120.109 98.1133 120.579 97.1783 120.719 96.1232C120.859 95.0682 120.709 94.1481 120.214 93.4781C119.869 92.733 119.259 92.388 118.489 92.473ZM116.934 94.3581C117.349 93.8981 117.834 93.5831 118.349 93.5231C118.864 93.4681 119.364 93.7731 119.569 94.2181C119.884 94.7031 120.009 95.3632 119.879 96.0532C119.854 96.7832 119.469 97.5033 119.159 98.0033C118.744 98.4633 118.259 98.7783 117.744 98.8383C117.229 98.8933 116.729 98.5883 116.524 98.1433C116.209 97.6583 116.084 96.9982 116.214 96.3082C116.344 95.6232 116.624 94.8631 116.934 94.3581Z" fill="#1BAA56"/>
<path d="M70.4467 81.5177C69.5266 81.6727 68.6666 82.3378 68.0516 83.3428C67.4365 84.3479 66.9565 85.6479 66.9115 87.108C66.8665 88.568 67.1565 89.7831 67.6065 90.5631C68.1666 91.3832 68.9516 91.9182 69.8716 91.7682C70.7917 91.6132 71.6517 90.9482 72.2667 89.9431C72.8818 88.9381 73.3618 87.638 73.4068 86.1779C73.4518 84.7179 73.1618 83.5028 72.7118 82.7228C72.1517 81.8978 71.3267 81.4727 70.4467 81.5177ZM68.6816 84.3129C69.1766 83.6328 69.7416 83.1028 70.4017 82.9778C71.0617 82.8528 71.6717 83.1978 71.9467 83.7928C72.3267 84.4279 72.5218 85.2379 72.4918 86.333C72.4968 87.318 72.1367 88.293 71.6017 89.0831C71.1067 89.7631 70.5417 90.2931 69.8816 90.4181C69.2216 90.5431 68.6116 90.1981 68.3366 89.6031C67.9566 88.9681 67.7615 88.158 67.7915 87.063C67.9366 86.0079 68.1866 84.9929 68.6816 84.3129Z" fill="#1BAA56"/>
<path fill-rule="evenodd" clip-rule="evenodd" d="M101.718 101.893C101.748 102.148 101.733 102.513 101.618 102.838C101.128 104.504 99.243 105.289 97.4279 104.864C95.5428 104.294 94.4677 102.543 94.9178 100.988C95.0378 100.663 95.1178 100.448 95.3478 100.163L101.718 101.893Z" fill="#E51685" fill-opacity="0.2"/>
<path fill-rule="evenodd" clip-rule="evenodd" d="M95.2778 100.018L101.723 101.898C101.793 102.048 101.713 102.263 101.673 102.373C100.578 102.338 98.5779 102.093 96.9879 101.388C96.1628 100.958 95.5128 100.723 94.9678 100.523C95.1178 100.448 95.1978 100.233 95.2778 100.018Z" fill="url(#paint0_linear)"/>
<path d="M104.403 89.5931C104.618 89.6731 104.878 89.6431 105.063 89.4681C105.638 88.573 106.608 87.943 107.673 87.723C108.738 87.498 109.753 87.753 110.653 88.328C111.223 88.7831 111.754 89.3481 112.099 90.0881C112.234 90.3831 112.559 90.5031 112.749 90.3281C113.044 90.1931 113.164 89.8681 112.989 89.6781C112.579 88.7881 111.979 88.078 111.193 87.538C110.118 86.773 108.738 86.513 107.418 86.763C106.093 87.013 104.938 87.818 104.173 88.8931C103.978 89.0681 104.113 89.3631 104.403 89.5931C104.403 89.5931 104.293 89.5531 104.403 89.5931Z" fill="#3A434E"/>
<path d="M104.558 92.8483C104.773 92.9283 105.033 92.8983 105.218 92.7233C105.713 92.0433 106.673 91.7833 107.243 92.2383C107.418 92.4283 107.598 92.6133 107.623 92.8733C107.758 93.1683 107.978 93.2483 108.233 93.2233C108.528 93.0883 108.608 92.8683 108.583 92.6133C108.488 92.2083 108.173 91.7233 107.778 91.4582C106.743 90.5882 105.168 90.8682 104.253 92.0083C104.063 92.1833 104.163 92.5883 104.338 92.7783C104.558 92.8483 104.558 92.8483 104.558 92.8483Z" fill="#3A434E"/>
<path d="M93.6727 90.3181C93.8877 90.3981 94.1477 90.3681 94.3327 90.1931C94.5228 90.018 94.7078 89.838 94.8578 89.773C95.5578 89.538 96.3878 89.968 96.6878 90.8181C96.8229 91.1131 97.0429 91.1931 97.2979 91.1631C97.5929 91.0281 97.6729 90.8081 97.6479 90.5531C97.1779 89.148 95.7428 88.373 94.4477 88.883C94.0027 89.088 93.6677 89.333 93.3977 89.728C93.2477 89.793 93.2377 90.1581 93.6727 90.3181C93.5627 90.2781 93.5627 90.2781 93.6727 90.3181Z" fill="#3A434E"/>
<path d="M90.6826 85.4028C90.8976 85.4828 91.0476 85.4128 91.1976 85.3478C91.7626 84.8178 92.4627 84.5828 93.2327 84.4978C95.4328 84.2028 97.4729 85.6878 97.7679 87.8879C97.7979 88.1429 98.0829 88.3729 98.3379 88.3429C98.5929 88.3129 98.823 88.0279 98.793 87.7729C98.4379 85.0578 95.8328 83.1127 93.0077 83.4277C92.0877 83.5827 91.1976 83.9928 90.4876 84.5928C90.2976 84.7678 90.2876 85.1328 90.4626 85.3228C90.6126 85.2578 90.6826 85.4028 90.6826 85.4028Z" fill="#3A434E"/>
<path fill-rule="evenodd" clip-rule="evenodd" d="M107.418 148.805C107.418 148.805 102.638 149.225 98.988 148.87C98.988 148.87 102.958 150.89 107.418 148.805Z" fill="#F2B6AC"/>
<path fill-rule="evenodd" clip-rule="evenodd" d="M106.313 152.821C106.313 152.821 101.748 152.996 98.2329 152.491C98.2329 152.491 102.138 154.576 106.313 152.821Z" fill="#F2B6AC"/>
<path fill-rule="evenodd" clip-rule="evenodd" d="M104.823 155.871C104.823 155.871 100.698 156.211 97.5529 155.891C97.5529 155.886 100.988 157.646 104.823 155.871Z" fill="#F2B6AC"/>
<path d="M94.8128 110.074C94.8128 110.074 89.2575 110.239 83.7523 105.579C83.7523 105.579 87.5374 111.414 95.2328 111.294L94.8128 110.074Z" fill="#F0A195"/>
</g>
<defs>
<linearGradient id="paint0_linear" x1="101.753" y1="99.7344" x2="93.6152" y2="103.72" gradientUnits="userSpaceOnUse">
<stop stop-color="white"/>
<stop offset="1" stop-color="#E6E6E6"/>
</linearGradient>
<clipPath id="clip0">
<rect width="224" height="149.907" fill="white" transform="translate(32 32)"/>
</clipPath>
</defs>
</svg>
