<svg width="288" height="214" viewBox="0 0 288 214" fill="none" xmlns="http://www.w3.org/2000/svg">
<g clip-path="url(#clip0)">
<path d="M206.797 179.73C201.246 181.22 195.206 182.19 188.651 182.545C180.08 183.005 172.929 182.36 166.529 181.095C166.199 181.035 165.874 180.965 165.549 180.9C165.224 180.83 164.899 180.76 164.574 180.69C164.169 180.6 163.769 180.51 163.374 180.415C163.139 180.36 162.904 180.305 162.669 180.245C161.144 179.875 159.654 179.47 158.193 179.04C157.898 178.955 157.603 178.87 157.308 178.775C156.108 178.42 154.928 178.04 153.763 177.65C153.393 177.53 153.028 177.405 152.663 177.28C152.298 177.155 151.933 177.03 151.568 176.905C142.932 173.91 134.737 170.45 124.546 168.309C121.781 167.729 118.871 167.244 115.761 166.894C115.431 166.854 115.096 166.819 114.761 166.789C114.431 166.754 114.101 166.724 113.765 166.694C105.455 165.934 95.7493 166.129 83.7885 167.914C82.8784 168.059 81.9834 168.194 81.1033 168.304C76.483 168.914 72.2327 169.115 68.3374 168.954C23.7395 167.114 25.2396 118.071 45.8759 92.5244C60.4519 74.5282 85.5386 51.6066 116.331 40.0908C116.666 39.9658 117.001 39.8408 117.336 39.7258C117.671 39.5958 118.006 39.4758 118.346 39.3558C140.562 31.4653 165.654 29.6101 191.836 39.7858C192.346 39.9808 192.861 40.1809 193.371 40.3909C193.786 40.5609 194.206 40.7309 194.626 40.9059C195.036 41.0809 195.441 41.2559 195.851 41.4359C200.796 43.5761 205.777 46.1613 210.777 49.2165C220.423 55.1169 230.158 62.7824 239.894 72.508C267.876 100.49 260.96 165.124 206.797 179.73Z" fill="#EEFFF3"/>
<path d="M213.262 31.5654L206.797 179.73C201.246 181.22 195.206 182.19 188.65 182.545C179.2 183.056 171.474 182.215 164.574 180.69C163.199 180.385 161.854 180.055 160.539 179.7L164.049 50.9367L191.836 39.7859L213.262 31.5654Z" fill="#189C4E"/>
<path d="M169.799 133.052C169.799 133.052 173.679 133.282 176.64 133.587C177.885 133.717 178.895 134.492 179.655 135.482C182.43 139.098 181.37 142.903 179.445 145.373C179.445 145.373 174.024 147.718 169.799 147.848L168.334 140.588L169.799 133.052Z" fill="#29CC6D"/>
<path d="M211.727 32.8754L194.626 40.9059L193.796 41.296L171.059 51.9817C169.999 52.7067 169.344 53.9018 169.304 55.1969L165.574 180.72C165.574 180.78 165.564 180.84 165.549 180.9C165.224 180.83 164.899 180.76 164.574 180.69C164.169 180.6 163.769 180.51 163.374 180.415C163.139 180.36 162.904 180.305 162.669 180.245C161.144 179.875 159.654 179.47 158.193 179.04C157.898 178.955 157.603 178.87 157.308 178.775C156.108 178.42 154.928 178.04 153.763 177.65C153.393 177.53 153.028 177.405 152.663 177.28C152.298 177.155 151.933 177.03 151.568 176.905C142.932 173.91 134.737 170.45 124.546 168.309C121.781 167.729 118.871 167.244 115.761 166.894C115.431 166.854 115.096 166.819 114.761 166.789L117.336 39.7258L117.346 39.3358L117.451 34.0605C117.406 32.4604 117.991 30.9453 119.101 29.7952C120.221 28.6401 121.726 28.0001 123.331 28.0001C123.401 28.0001 123.466 28.0051 123.536 28.0051L211.337 30.9703C211.797 30.9853 212.187 31.3153 212.282 31.7703C212.377 32.2203 212.147 32.6804 211.727 32.8754Z" fill="white"/>
<path d="M213.262 31.5653C213.077 30.6602 212.292 30.0002 211.372 29.9702L123.566 27.005C123.491 27.005 123.411 27 123.331 27C121.451 27 119.691 27.7501 118.381 29.1001C117.086 30.4402 116.401 32.2003 116.451 34.0655L116.346 39.3158L116.331 40.0909L113.765 166.694C114.441 166.754 115.106 166.819 116.466 166.954L119.291 40.0359L119.431 35.2206C119.336 32.4454 121.806 29.9352 124.556 29.9352C124.616 29.9352 210.702 33.0854 210.702 33.0854L193.376 40.3959L170.569 51.1116C169.199 52.0167 168.359 53.5318 168.309 55.1719L164.579 180.695C165.224 180.835 165.874 180.975 166.534 181.1C166.559 180.99 166.574 180.875 166.579 180.755L170.309 55.2319C170.339 54.2818 170.804 53.4018 171.569 52.8517L194.226 42.206L195.856 41.441L212.157 33.7855C212.987 33.3854 213.447 32.4754 213.262 31.5653Z" fill="#189C4E"/>
<path d="M142.927 155.029C135.702 155.469 131.142 152.559 126.756 146.648C118.236 135.167 118.676 120.911 118.751 119.326L134.582 120.066C134.577 120.166 134.252 130.157 139.482 137.203C140.837 139.028 143.187 139.858 145.458 139.328L158.708 136.212L161.764 149.203C161.769 149.208 147.863 154.734 142.927 155.029Z" fill="#FBD2CB"/>
<path d="M133.652 113.331L139.412 132.917L121.006 141.482C121.006 141.482 114.566 130.232 117.171 118.116L133.652 113.331Z" fill="#0074DB"/>
<path d="M132.592 128.772C126.956 142.993 125.006 157.419 124.546 168.31C114 166.095 101.315 165.299 83.7885 167.915C82.8784 168.06 81.9833 168.195 81.1033 168.305C76.483 168.915 72.2327 169.115 68.3374 168.955C68.2924 155.939 70.4526 136.353 81.2283 117.961C83.6135 113.891 88.2688 103.1 91.999 101.625C100.605 98.215 106.62 98.19 114.811 99.1801C128.661 100.85 139.027 112.536 132.592 128.772Z" fill="#0074DB"/>
<path d="M80.6833 155.074L71.1576 143.728C64.2472 134.422 65.4923 124.162 73.9578 116.341C82.7184 108.25 94.9942 104.535 95.5093 104.38L100.03 119.571L97.7694 111.976L100.045 119.566C99.9546 119.596 90.7189 122.431 84.7085 127.982C82.2084 130.292 80.6683 134.497 82.7384 137.282L90.2739 147.943L80.6833 155.074Z" fill="#FBD2CB"/>
<path d="M155.478 138.377L158.713 136.217C158.713 136.217 160.889 135.777 162.269 133.052C163.649 130.327 164.284 128.312 166.869 128.142C169.459 127.967 176.59 128.832 176.59 128.832C176.59 128.832 177.97 132.342 175.555 132.857C173.139 133.377 169.419 133.067 169.419 133.067L169.799 140.452L167.039 146.948L161.764 149.208L155.478 138.377Z" fill="#FBD2CB"/>
<path d="M83.7185 143.643L87.0387 145.018C87.0387 145.018 88.3988 146.458 91.369 146.128C94.3392 145.798 96.3593 145.258 97.6794 147.148C98.9995 149.038 103.41 153.474 103.41 153.474C103.41 153.474 101.38 155.844 99.4745 154.729C97.1994 153.394 94.5892 151.609 94.5892 151.609L88.4038 155.659L80.6783 155.079L78.9081 152.969L83.7185 143.643Z" fill="#FBD2CB"/>
<path d="M92.064 149.963L94.5742 150.973C94.5742 150.973 97.8944 156.369 100.575 159.084C103.25 161.804 105.435 163.989 105.435 163.989C105.435 163.989 103.745 166.859 101.29 165.564C101.29 165.564 100.075 168.179 97.2394 167.604C97.2394 167.604 95.9243 169.9 93.2541 168.399C93.2541 168.399 91.589 170.255 89.7089 168.884C89.7089 168.884 84.1135 164.384 80.3332 154.153L92.064 149.963Z" fill="#FBD2CB"/>
<path d="M163.359 146.778L165.024 147.813C165.024 147.813 169.284 152.298 173.709 149.883C173.709 149.883 175.895 150.893 177.735 149.208C177.735 149.208 183.43 148.098 182.74 143.498C182.74 143.498 182.525 142.433 181.29 142.693C180.055 142.953 179.865 143.988 179.865 143.988C179.865 143.988 179.765 143.123 178.6 143.328C177.435 143.528 176.92 144.578 176.92 144.578C176.92 144.578 176.79 143.773 175.77 143.873C174.75 143.973 173.93 145.223 173.93 145.223L169.799 144.803L163.359 146.778Z" fill="#FBD2CB"/>
<path d="M169.799 147.853C172.975 147.853 175.55 144.54 175.55 140.453C175.55 136.365 172.975 133.052 169.799 133.052C166.623 133.052 164.049 136.365 164.049 140.453C164.049 144.54 166.623 147.853 169.799 147.853Z" fill="#1BAA56"/>
<path d="M91.999 101.625L73.3478 110.77L84.4285 130.157L103.065 119.801L99.5345 105.155L91.999 101.625Z" fill="#0074DB"/>
<path d="M169.199 145.968C171.566 145.968 173.484 143.498 173.484 140.452C173.484 137.406 171.566 134.937 169.199 134.937C166.832 134.937 164.914 137.406 164.914 140.452C164.914 143.498 166.832 145.968 169.199 145.968Z" fill="#29CC6D"/>
<path d="M103.905 95.7997L102.285 101.395C102.285 101.395 105.88 109.246 114.801 109.771C123.721 110.296 122.671 107.44 122.671 107.44L123.491 104.43L103.905 95.7997Z" fill="#F2B6AC"/>
<path fill-rule="evenodd" clip-rule="evenodd" d="M120.821 108.396C108.64 108.411 98.4695 98.365 98.4745 86.0492L98.4394 71.6132C98.4344 65.5228 103.38 60.4925 109.465 60.4875L131.892 60.4325C137.982 60.4275 143.762 55.8572 143.017 71.4582L143.052 85.8942C143.047 98.21 133.137 108.406 120.821 108.396Z" fill="#FBD2CB"/>
<path fill-rule="evenodd" clip-rule="evenodd" d="M127.906 98.175C128.001 98.465 128.071 98.895 128.006 99.3001C127.821 101.345 125.811 102.69 123.611 102.62C121.296 102.395 119.641 100.61 119.801 98.7C119.866 98.295 119.906 98.025 120.106 97.64L127.906 98.175Z" fill="#E51685" fill-opacity="0.2"/>
<path fill-rule="evenodd" clip-rule="evenodd" d="M119.996 97.4801L127.911 98.1752C128.026 98.3302 127.981 98.6002 127.961 98.7352C126.681 98.9502 124.301 99.1252 122.296 98.6702C121.236 98.3652 120.426 98.2352 119.751 98.1302C119.911 98.0202 119.956 97.7501 119.996 97.4801Z" fill="url(#paint0_linear)"/>
<path d="M130.612 77.1437C130.857 77.2687 131.162 77.2687 131.407 77.0887C132.212 76.1186 133.437 75.5186 134.722 75.4086C136.007 75.2986 137.162 75.7336 138.137 76.5387C138.742 77.1537 139.287 77.8938 139.582 78.8138C139.702 79.1838 140.067 79.3689 140.312 79.1888C140.682 79.0688 140.867 78.7038 140.687 78.4588C140.332 77.3537 139.727 76.4337 138.877 75.6936C137.727 74.6435 136.142 74.1435 134.552 74.2485C132.962 74.3585 131.487 75.1386 130.437 76.2886C130.192 76.4687 130.307 76.8337 130.612 77.1437C130.612 77.1437 130.492 77.0787 130.612 77.1437Z" fill="#3A434E"/>
<path d="M113.07 77.4188C113.34 77.3938 113.465 77.2488 113.59 77.0987C113.93 76.2487 114.566 75.6436 115.346 75.1686C117.556 73.7485 120.486 74.3236 121.906 76.5337C122.066 76.7937 122.486 76.8987 122.746 76.7387C123.006 76.5787 123.111 76.1587 122.951 75.8987C121.211 73.1635 117.441 72.3834 114.571 74.1385C113.665 74.7636 112.915 75.6486 112.45 76.6487C112.335 76.9337 112.505 77.3288 112.79 77.4438C112.92 77.2938 113.07 77.4188 113.07 77.4188Z" fill="#3A434E"/>
<path d="M114.816 81.964C115.061 81.4189 119.171 77.5487 121.826 82.024C121.821 82.024 118.531 80.2438 114.816 81.964Z" fill="#3A434E"/>
<path d="M130.382 82.4887C130.747 81.9237 134.912 78.1334 137.392 82.5487C137.392 82.5487 134.102 80.7636 130.382 82.4887Z" fill="#3A434E"/>
<path d="M105.46 79.1887C106.28 75.0734 105.445 69.803 108.525 67.1929C111.605 64.5877 114.221 62.8926 126.161 65.6928C138.102 68.4929 140.287 69.583 144.938 67.1378C149.843 64.5627 150.408 53.817 144.223 48.7566C138.037 43.6963 133.192 45.9514 133.192 45.9514C133.192 45.9514 132.577 41.1061 124.346 41.5411C116.116 41.9762 114.181 46.6415 114.181 46.6415C114.181 46.6415 104.535 44.1413 99.7345 53.5719C99.7345 53.5719 95.0742 53.1669 92.139 58.1923C90.0589 61.7525 90.1489 63.3426 94.0142 76.3785C97.8794 89.4143 98.8295 90.5894 98.8295 90.5894C98.8295 90.5894 104 86.5091 105.46 79.1887Z" fill="#3A434E"/>
<path d="M101.285 82.829C101.285 82.829 98.9945 74.0084 94.0392 78.2737C89.3138 82.349 94.0592 87.7393 95.6893 88.4944C98.3044 89.6994 98.9995 90.8795 98.9995 90.8795L101.895 88.5044L101.285 82.829Z" fill="#FBD2CB"/>
<path fill-rule="evenodd" clip-rule="evenodd" d="M141.567 68.368C141.567 68.368 152.828 67.383 152.313 57.1173C152.313 57.1173 150.453 65.9579 142.182 65.5778L141.567 68.368Z" fill="#3A434E"/>
<path d="M83.7685 129.007L84.6185 130.557L97.9044 123.197L84.5585 131.882L82.9184 130.257C82.9234 130.252 83.1434 129.792 83.7685 129.007Z" fill="#0162B8"/>
<path d="M129.582 137.492L132.432 129.197L131.342 136.672L129.582 137.492Z" fill="#0162B8"/>
<path fill-rule="evenodd" clip-rule="evenodd" d="M100.05 164.544C100.05 164.544 96.6943 161.109 94.6642 158.059C94.6642 158.059 95.6093 162.414 100.05 164.544Z" fill="#F2B6AC"/>
<path fill-rule="evenodd" clip-rule="evenodd" d="M96.5493 166.394C96.5493 166.394 93.1941 162.959 91.164 159.909C91.164 159.909 92.114 164.264 96.5493 166.394Z" fill="#F2B6AC"/>
<path fill-rule="evenodd" clip-rule="evenodd" d="M92.309 167.174C92.309 167.174 89.6389 164.064 88.0188 161.304C88.0188 161.299 88.7738 165.244 92.309 167.174Z" fill="#F2B6AC"/>
<path d="M122.521 108.335C122.521 108.335 113.41 109.45 106.115 102.815C106.115 102.815 110.185 110.191 120.071 109.575C120.066 109.57 121.866 109.32 122.521 108.335Z" fill="#F0A195"/>
<path d="M127.981 148.218L131.002 139.238L137.457 133.827L129.577 137.493C129.577 137.493 127.951 142.888 127.141 147.168L127.981 148.218Z" fill="#F2B6AC"/>
</g>
<defs>
<linearGradient id="paint0_linear" x1="127.496" y1="95.7708" x2="118.968" y2="102.273" gradientUnits="userSpaceOnUse">
<stop stop-color="white"/>
<stop offset="1" stop-color="#E6E6E6"/>
</linearGradient>
<clipPath id="clip0">
<rect width="224" height="155.695" fill="white" transform="translate(32 27)"/>
</clipPath>
</defs>
</svg>
