<svg width="120" height="40" viewBox="0 0 120 40" fill="none" xmlns="http://www.w3.org/2000/svg">
<rect x="0.5" y="0.5" width="119" height="39" rx="5.5" fill="black"/>
<path d="M24.7673 19.4173C24.778 18.5827 24.9997 17.7643 25.4118 17.0383C25.8238 16.3124 26.4128 15.7024 27.1238 15.2653C26.6721 14.6201 26.0762 14.0892 25.3833 13.7146C24.6905 13.3401 23.9199 13.1322 23.1327 13.1076C21.4534 12.9313 19.8255 14.1124 18.9698 14.1124C18.0975 14.1124 16.78 13.1251 15.3613 13.1543C14.4436 13.1839 13.5493 13.4508 12.7654 13.9288C11.9815 14.4069 11.3348 15.0799 10.8884 15.8822C8.95436 19.2306 10.397 24.1516 12.2496 26.8582C13.1765 28.1836 14.2597 29.664 15.6772 29.6115C17.0643 29.554 17.5823 28.7271 19.2566 28.7271C20.9154 28.7271 21.4014 29.6115 22.8476 29.5782C24.336 29.554 25.2737 28.2469 26.1681 26.909C26.8341 25.9647 27.3465 24.9209 27.6865 23.8165C26.8218 23.4508 26.0839 22.8386 25.5648 22.0563C25.0457 21.274 24.7683 20.3562 24.7673 19.4173Z" fill="white"/>
<path d="M22.0356 11.3275C22.8471 10.3533 23.247 9.10115 23.1501 7.83691C21.9103 7.96713 20.765 8.55969 19.9426 9.49652C19.5404 9.95419 19.2324 10.4866 19.0362 11.0634C18.8399 11.6402 18.7593 12.25 18.7988 12.8579C19.419 12.8643 20.0325 12.7299 20.5932 12.4648C21.1538 12.1997 21.647 11.8109 22.0356 11.3275Z" fill="white"/>
<path d="M42.3003 26.2563H37.5669L36.4302 29.6127H34.4253L38.9087 17.1947H40.9917L45.4751 29.6127H43.436L42.3003 26.2563ZM38.0571 24.7074H41.8091L39.9595 19.2602H39.9078L38.0571 24.7074Z" fill="white"/>
<path d="M55.1577 25.0863C55.1577 27.8998 53.6519 29.7074 51.3794 29.7074C50.8038 29.7375 50.2313 29.6049 49.7275 29.3248C49.2237 29.0447 48.809 28.6283 48.5308 28.1234H48.4878V32.6078H46.6294V20.559H48.4283V22.0648H48.4624C48.7534 21.5624 49.1751 21.1482 49.6827 20.8663C50.1904 20.5845 50.7649 20.4455 51.3452 20.4643C53.6431 20.4643 55.1577 22.2807 55.1577 25.0863ZM53.2476 25.0863C53.2476 23.2533 52.3003 22.0482 50.855 22.0482C49.4351 22.0482 48.48 23.2787 48.48 25.0863C48.48 26.9106 49.4351 28.1322 50.855 28.1322C52.3003 28.1322 53.2476 26.9359 53.2476 25.0863Z" fill="white"/>
<path d="M65.1226 25.0864C65.1226 27.8999 63.6167 29.7075 61.3443 29.7075C60.7686 29.7376 60.1961 29.605 59.6923 29.3248C59.1885 29.0447 58.7738 28.6284 58.4956 28.1235H58.4526V32.6079H56.5942V20.559H58.3931V22.0649H58.4272C58.7182 21.5624 59.1399 21.1482 59.6476 20.8664C60.1552 20.5846 60.7297 20.4456 61.3101 20.4643C63.6079 20.4643 65.1226 22.2807 65.1226 25.0864ZM63.2124 25.0864C63.2124 23.2534 62.2652 22.0483 60.8198 22.0483C59.3999 22.0483 58.4448 23.2788 58.4448 25.0864C58.4448 26.9106 59.3999 28.1323 60.8198 28.1323C62.2652 28.1323 63.2124 26.936 63.2124 25.0864Z" fill="white"/>
<path d="M71.7085 26.1528C71.8462 27.3842 73.0425 28.1928 74.6773 28.1928C76.2437 28.1928 77.3706 27.3842 77.3706 26.2738C77.3706 25.3099 76.6909 24.7328 75.0816 24.3373L73.4722 23.9496C71.1919 23.3988 70.1333 22.3324 70.1333 20.6019C70.1333 18.4594 72.0005 16.9877 74.6519 16.9877C77.2759 16.9877 79.0747 18.4594 79.1353 20.6019H77.2593C77.147 19.3627 76.1226 18.6146 74.6255 18.6146C73.1284 18.6146 72.104 19.3715 72.104 20.473C72.104 21.351 72.7583 21.8676 74.3589 22.263L75.7271 22.599C78.2749 23.2015 79.3335 24.225 79.3335 26.0414C79.3335 28.3646 77.4829 29.8197 74.5396 29.8197C71.7856 29.8197 69.9263 28.3988 69.8062 26.1527L71.7085 26.1528Z" fill="white"/>
<path d="M83.3442 18.4164V20.559H85.0659V22.0307H83.3442V27.0219C83.3442 27.7973 83.689 28.1586 84.4458 28.1586C84.6502 28.1551 84.8542 28.1407 85.0571 28.1156V29.5785C84.7168 29.6421 84.371 29.6709 84.0249 29.6645C82.1919 29.6645 81.477 28.976 81.477 27.2201V22.0307H80.1606V20.559H81.477V18.4164H83.3442Z" fill="white"/>
<path d="M86.0627 25.0863C86.0627 22.2377 87.7405 20.4476 90.3567 20.4476C92.9817 20.4476 94.6516 22.2376 94.6516 25.0863C94.6516 27.9428 92.9905 29.725 90.3567 29.725C87.7238 29.725 86.0627 27.9427 86.0627 25.0863ZM92.758 25.0863C92.758 23.1322 91.8625 21.9789 90.3567 21.9789C88.8508 21.9789 87.9563 23.141 87.9563 25.0863C87.9563 27.0482 88.8508 28.1928 90.3567 28.1928C91.8625 28.1928 92.758 27.0482 92.758 25.0863Z" fill="white"/>
<path d="M96.1841 20.559H97.9566V22.1H97.9995C98.1195 21.6187 98.4014 21.1934 98.798 20.8955C99.1946 20.5976 99.6816 20.4454 100.177 20.4643C100.391 20.4635 100.605 20.4868 100.814 20.5336V22.2719C100.544 22.1893 100.262 22.1514 99.979 22.1596C99.709 22.1486 99.4399 22.1963 99.19 22.2991C98.9402 22.402 98.7156 22.5578 98.5316 22.7556C98.3476 22.9535 98.2086 23.1889 98.1242 23.4456C98.0398 23.7022 98.0119 23.9741 98.0425 24.2426V29.6127H96.1841L96.1841 20.559Z" fill="white"/>
<path d="M109.382 26.9536C109.132 28.5971 107.532 29.725 105.484 29.725C102.85 29.725 101.215 27.9604 101.215 25.1293C101.215 22.2895 102.859 20.4477 105.406 20.4477C107.911 20.4477 109.486 22.1684 109.486 24.9135V25.5502H103.091V25.6625C103.062 25.9957 103.104 26.3314 103.214 26.6472C103.324 26.9631 103.5 27.2519 103.73 27.4944C103.961 27.737 104.24 27.9277 104.55 28.054C104.86 28.1803 105.193 28.2393 105.527 28.227C105.966 28.2681 106.407 28.1664 106.783 27.937C107.16 27.7075 107.453 27.3626 107.618 26.9535L109.382 26.9536ZM103.1 24.2514H107.626C107.643 23.9518 107.598 23.652 107.493 23.3708C107.388 23.0896 107.227 22.833 107.018 22.6173C106.81 22.4015 106.559 22.2312 106.281 22.117C106.004 22.0027 105.706 21.9471 105.406 21.9536C105.103 21.9517 104.803 22.0099 104.523 22.1246C104.243 22.2394 103.989 22.4084 103.774 22.6221C103.56 22.8357 103.39 23.0897 103.274 23.3693C103.158 23.649 103.099 23.9488 103.1 24.2514Z" fill="white"/>
<path d="M37.8245 7.84765C38.2141 7.81969 38.605 7.87855 38.9691 8.01999C39.3333 8.16142 39.6614 8.3819 39.93 8.66552C40.1986 8.94915 40.4009 9.28885 40.5223 9.66012C40.6437 10.0314 40.6812 10.425 40.6321 10.8125C40.6321 12.7187 39.6018 13.8145 37.8245 13.8145H35.6692V7.84765H37.8245ZM36.5959 12.9707H37.7209C37.9993 12.9873 38.278 12.9416 38.5365 12.837C38.795 12.7324 39.027 12.5715 39.2155 12.3659C39.404 12.1603 39.5443 11.9153 39.6261 11.6487C39.708 11.3821 39.7294 11.1006 39.6887 10.8247C39.7264 10.5498 39.7029 10.27 39.6198 10.0054C39.5366 9.74072 39.396 9.49772 39.2079 9.29379C39.0199 9.08986 38.789 8.93005 38.532 8.82581C38.2749 8.72157 37.9979 8.67549 37.7209 8.69086H36.5959V12.9707Z" fill="white"/>
<path d="M41.6785 11.561C41.6502 11.2651 41.684 10.9665 41.7779 10.6844C41.8717 10.4024 42.0235 10.143 42.2234 9.92304C42.4234 9.70306 42.6671 9.52729 42.9389 9.40701C43.2108 9.28674 43.5048 9.22461 43.802 9.22461C44.0993 9.22461 44.3933 9.28674 44.6651 9.40701C44.937 9.52729 45.1807 9.70306 45.3807 9.92304C45.5806 10.143 45.7324 10.4024 45.8262 10.6844C45.92 10.9665 45.9539 11.2651 45.9256 11.561C45.9544 11.8572 45.921 12.1562 45.8274 12.4387C45.7338 12.7212 45.5821 12.9811 45.3821 13.2015C45.1821 13.4219 44.9382 13.598 44.6661 13.7186C44.394 13.8391 44.0997 13.9014 43.802 13.9014C43.5044 13.9014 43.2101 13.8391 42.938 13.7186C42.6658 13.598 42.4219 13.4219 42.2219 13.2015C42.022 12.9811 41.8703 12.7212 41.7767 12.4387C41.6831 12.1562 41.6497 11.8572 41.6785 11.561ZM45.0115 11.561C45.0115 10.5849 44.573 10.0141 43.8035 10.0141C43.031 10.0141 42.5965 10.5849 42.5965 11.561C42.5965 12.5449 43.0311 13.1113 43.8035 13.1113C44.573 13.1113 45.0115 12.541 45.0115 11.561Z" fill="white"/>
<path d="M51.5715 13.8144H50.6497L49.719 10.498H49.6487L48.7219 13.8144H47.8088L46.5676 9.31146H47.469L48.2756 12.7475H48.342L49.2678 9.31146H50.1204L51.0461 12.7475H51.1165L51.9192 9.31146H52.8079L51.5715 13.8144Z" fill="white"/>
<path d="M53.8518 9.31145H54.7073V10.0268H54.7737C54.8863 9.76985 55.0763 9.55448 55.3172 9.41068C55.5581 9.26687 55.8378 9.2018 56.1174 9.22453C56.3365 9.20805 56.5565 9.24109 56.7611 9.32118C56.9657 9.40128 57.1497 9.52638 57.2994 9.68723C57.449 9.84807 57.5606 10.0405 57.6258 10.2504C57.691 10.4602 57.7082 10.682 57.676 10.8993V13.8143H56.7874V11.1225C56.7874 10.3989 56.4729 10.039 55.8157 10.039C55.6669 10.0321 55.5184 10.0574 55.3804 10.1132C55.2423 10.169 55.118 10.2541 55.0158 10.3624C54.9137 10.4708 54.8362 10.6 54.7887 10.7411C54.7412 10.8823 54.7247 11.032 54.7405 11.1801V13.8144H53.8518L53.8518 9.31145Z" fill="white"/>
<path d="M59.092 7.55365H59.9807V13.8144H59.092V7.55365Z" fill="white"/>
<path d="M61.2156 11.5609C61.1873 11.265 61.2212 10.9664 61.315 10.6843C61.4089 10.4023 61.5607 10.1429 61.7606 9.92293C61.9606 9.70294 62.2043 9.52717 62.4762 9.4069C62.7481 9.28662 63.0421 9.22449 63.3394 9.22449C63.6367 9.22449 63.9307 9.28662 64.2025 9.4069C64.4744 9.52717 64.7181 9.70294 64.9181 9.92293C65.1181 10.1429 65.2698 10.4023 65.3637 10.6843C65.4576 10.9664 65.4914 11.265 65.4631 11.5609C65.492 11.8572 65.4585 12.1562 65.3649 12.4387C65.2712 12.7212 65.1195 12.981 64.9195 13.2014C64.7195 13.4218 64.4756 13.598 64.2035 13.7185C63.9313 13.839 63.637 13.9013 63.3394 13.9013C63.0417 13.9013 62.7474 13.839 62.4753 13.7185C62.2031 13.598 61.9592 13.4218 61.7592 13.2014C61.5592 12.981 61.4075 12.7212 61.3139 12.4387C61.2203 12.1562 61.1868 11.8572 61.2156 11.5609ZM64.5486 11.5609C64.5486 10.5849 64.1101 10.0141 63.3406 10.0141C62.5681 10.0141 62.1336 10.5849 62.1336 11.561C62.1336 12.5448 62.5682 13.1112 63.3406 13.1112C64.1101 13.1112 64.5486 12.5409 64.5486 11.5609Z" fill="white"/>
<path d="M66.3992 12.5409C66.3992 11.7304 67.0027 11.2631 68.074 11.1967L69.2937 11.1264V10.7377C69.2937 10.2621 68.9792 9.99359 68.3718 9.99359C67.8757 9.99359 67.532 10.1757 67.4333 10.4941H66.573C66.6638 9.72064 67.3914 9.22455 68.4128 9.22455C69.5418 9.22455 70.1785 9.78655 70.1785 10.7377V13.8144H69.323V13.1816H69.2527C69.11 13.4086 68.9096 13.5936 68.6719 13.7178C68.4343 13.842 68.168 13.901 67.9001 13.8886C67.7111 13.9082 67.5201 13.8881 67.3393 13.8294C67.1585 13.7707 66.9921 13.6748 66.8507 13.5478C66.7092 13.4208 66.596 13.2656 66.5182 13.0922C66.4405 12.9188 66.3999 12.731 66.3992 12.5409ZM69.2937 12.1562V11.7797L68.1941 11.85C67.574 11.8915 67.2927 12.1025 67.2927 12.4994C67.2927 12.9047 67.6443 13.1405 68.1277 13.1405C68.2694 13.1549 68.4124 13.1406 68.5484 13.0985C68.6845 13.0564 68.8106 12.9874 68.9194 12.8955C69.0282 12.8037 69.1174 12.6909 69.1817 12.5639C69.246 12.4369 69.2841 12.2982 69.2937 12.1562Z" fill="white"/>
<path d="M71.3464 11.561C71.3464 10.1381 72.0779 9.23677 73.2156 9.23677C73.497 9.2238 73.7763 9.29121 74.0208 9.4311C74.2653 9.571 74.465 9.7776 74.5964 10.0268H74.6628V7.55365H75.5515V13.8144H74.7V13.103H74.6296C74.488 13.3505 74.2814 13.5545 74.0322 13.693C73.7829 13.8314 73.5005 13.8991 73.2156 13.8886C72.0701 13.8886 71.3464 12.9873 71.3464 11.561ZM72.2644 11.561C72.2644 12.5161 72.7146 13.0908 73.4676 13.0908C74.2166 13.0908 74.6795 12.5078 74.6795 11.5649C74.6795 10.6264 74.2117 10.0351 73.4676 10.0351C72.7195 10.0351 72.2644 10.6137 72.2644 11.561Z" fill="white"/>
<path d="M79.2283 11.561C79.2283 10.1381 79.9597 9.23677 81.0974 9.23677C81.3788 9.2238 81.6581 9.29121 81.9026 9.4311C82.1472 9.571 82.3468 9.7776 82.4783 10.0268H82.5447V7.55365H83.4333V13.8144H82.5818V13.103H82.5115C82.3699 13.3505 82.1632 13.5545 81.914 13.693C81.6647 13.8314 81.3823 13.8991 81.0974 13.8886C79.9519 13.8886 79.2283 12.9873 79.2283 11.561ZM80.1463 11.561C80.1463 12.5161 80.5965 13.0908 81.3494 13.0908C82.0984 13.0908 82.5613 12.5078 82.5613 11.5649C82.5613 10.6264 82.0935 10.0351 81.3494 10.0351C80.6013 10.0351 80.1463 10.6137 80.1463 11.561Z" fill="white"/>
<path d="M84.7752 7.97994C84.7683 7.86484 84.7962 7.75033 84.8552 7.65125C84.9141 7.55217 85.0015 7.47308 85.106 7.42423C85.2104 7.37537 85.3271 7.359 85.441 7.37724C85.5548 7.39548 85.6606 7.44749 85.7445 7.52653C85.8285 7.60556 85.8868 7.70799 85.9118 7.82053C85.9369 7.93308 85.9276 8.05056 85.8851 8.15776C85.8427 8.26495 85.769 8.35693 85.6737 8.42177C85.5783 8.48662 85.4657 8.52134 85.3504 8.52144C85.2767 8.52519 85.203 8.51401 85.1337 8.48856C85.0645 8.46311 85.0011 8.42391 84.9473 8.37333C84.8936 8.32275 84.8507 8.26182 84.8211 8.19422C84.7915 8.12661 84.7759 8.05373 84.7752 7.97994ZM84.907 9.31148H85.7928V13.8144H84.907V9.31148Z" fill="white"/>
<rect x="0.5" y="0.5" width="119" height="39" rx="5.5" stroke="#A6A6A6" stroke-linejoin="round"/>
</svg>
