<svg width="135" height="40" viewBox="0 0 135 40" fill="none" xmlns="http://www.w3.org/2000/svg">
<rect x="0.5" y="0.5" width="134" height="39" rx="5.5" fill="#100F0D"/>
<path d="M106.936 29.9958H108.802V17.495H106.936V29.9958ZM123.743 21.9979L121.604 27.4179H121.54L119.32 21.9979H117.31L120.639 29.5729L118.741 33.7869H120.687L125.818 21.9979H123.743ZM113.161 28.5758C112.549 28.5758 111.697 28.2699 111.697 27.5141C111.697 26.5489 112.758 26.1799 113.675 26.1799C114.495 26.1799 114.881 26.3569 115.38 26.5978C115.235 27.756 114.238 28.5758 113.161 28.5758ZM113.386 21.7249C112.035 21.7249 110.635 22.3199 110.056 23.6379L111.713 24.3298C112.067 23.6379 112.726 23.4128 113.418 23.4128C114.383 23.4128 115.364 23.9919 115.38 25.0209V25.1499C115.042 24.957 114.318 24.668 113.434 24.668C111.649 24.668 109.831 25.6489 109.831 27.4818C109.831 29.1549 111.295 30.232 112.935 30.232C114.19 30.232 114.881 29.6699 115.316 29.0099H115.38V29.975H117.181V25.1818C117.181 22.9629 115.525 21.7249 113.386 21.7249ZM101.854 23.5198H99.1997V19.2339H101.854C103.249 19.2339 104.041 20.39 104.041 21.377C104.041 22.346 103.249 23.5198 101.854 23.5198ZM101.806 17.495H97.3348V29.9958H99.1997V25.26H101.806C103.874 25.26 105.907 23.7618 105.907 21.377C105.907 18.9919 103.874 17.495 101.806 17.495ZM77.4249 28.578C76.1359 28.578 75.0569 27.499 75.0569 26.0169C75.0569 24.519 76.1359 23.4229 77.4249 23.4229C78.6977 23.4229 79.6958 24.519 79.6958 26.0169C79.6958 27.499 78.6977 28.578 77.4249 28.578ZM79.5669 22.6979H79.5029C79.0839 22.1989 78.2789 21.7469 77.2639 21.7469C75.1368 21.7469 73.1878 23.616 73.1878 26.0169C73.1878 28.4009 75.1368 30.254 77.2639 30.254C78.2789 30.254 79.0839 29.8029 79.5029 29.287H79.5669V29.8989C79.5669 31.5268 78.6977 32.396 77.2959 32.396C76.1518 32.396 75.4429 31.5748 75.1528 30.8819L73.526 31.559C73.9928 32.6868 75.2339 34.072 77.2959 34.072C79.4868 34.072 81.3398 32.783 81.3398 29.6418V22.005H79.5669V22.6979ZM82.6278 29.9958H84.4969V17.494H82.6278V29.9958ZM87.2518 25.8719C87.2038 24.2279 88.5249 23.3909 89.4749 23.3909C90.2168 23.3909 90.8448 23.761 91.0538 24.2928L87.2518 25.8719ZM93.0518 24.454C92.6968 23.5029 91.6178 21.7469 89.4108 21.7469C87.2199 21.7469 85.3999 23.4709 85.3999 26.001C85.3999 28.3848 87.2038 30.254 89.6198 30.254C91.5697 30.254 92.6968 29.0619 93.1649 28.369L91.7148 27.402C91.2308 28.1109 90.5708 28.578 89.6198 28.578C88.67 28.578 87.9929 28.1429 87.5578 27.29L93.2449 24.9369L93.0518 24.454ZM47.7439 23.053V24.8569H52.061C51.9318 25.8719 51.5939 26.6129 51.079 27.1279C50.45 27.7568 49.4669 28.449 47.7439 28.449C45.0849 28.449 43.007 26.307 43.007 23.6479C43.007 20.99 45.0849 18.8479 47.7439 18.8479C49.1779 18.8479 50.2249 19.4109 50.9979 20.1359L52.2708 18.864C51.191 17.8329 49.7578 17.043 47.7439 17.043C44.1029 17.043 41.042 20.008 41.042 23.6479C41.042 27.29 44.1029 30.254 47.7439 30.254C49.7089 30.254 51.191 29.6088 52.3508 28.4009C53.5429 27.2089 53.914 25.534 53.914 24.18C53.914 23.761 53.8818 23.375 53.8168 23.053H47.7439ZM58.8218 28.578C57.5339 28.578 56.4219 27.5149 56.4219 26.001C56.4219 24.4698 57.5339 23.4229 58.8218 23.4229C60.1108 23.4229 61.2228 24.4698 61.2228 26.001C61.2228 27.5149 60.1108 28.578 58.8218 28.578ZM58.8218 21.7469C56.4698 21.7469 54.5528 23.5359 54.5528 26.001C54.5528 28.449 56.4698 30.254 58.8218 30.254C61.1739 30.254 63.0919 28.449 63.0919 26.001C63.0919 23.5359 61.1739 21.7469 58.8218 21.7469ZM68.1358 28.578C66.8468 28.578 65.7348 27.5149 65.7348 26.001C65.7348 24.4698 66.8468 23.4229 68.1358 23.4229C69.425 23.4229 70.5359 24.4698 70.5359 26.001C70.5359 27.5149 69.425 28.578 68.1358 28.578ZM68.1358 21.7469C65.7839 21.7469 63.8668 23.5359 63.8668 26.001C63.8668 28.449 65.7839 30.254 68.1358 30.254C70.4878 30.254 72.4048 28.449 72.4048 26.001C72.4048 23.5359 70.4878 21.7469 68.1358 21.7469Z" fill="white"/>
<path d="M20.7172 19.4198L10.0703 30.7199C10.0713 30.7218 10.0713 30.7249 10.0724 30.7268C10.3993 31.9539 11.5193 32.8569 12.8493 32.8569C13.3813 32.8569 13.8803 32.7129 14.3083 32.4609L14.3423 32.4408L26.3263 25.5259L20.7172 19.4198Z" fill="#EB3131"/>
<path d="M31.4882 17.4958L31.4781 17.4887L26.3041 14.4896L20.4751 19.6767L26.325 25.5247L31.471 22.5558C32.373 22.0676 32.9861 21.1167 32.9861 20.0207C32.9861 18.9306 32.382 17.9848 31.4882 17.4958Z" fill="#F6B60B"/>
<path d="M10.0701 9.2729C10.0061 9.50883 9.97217 9.75689 9.97217 10.0129V29.9809C9.97217 30.2369 10.0061 30.4848 10.0712 30.7199L21.0831 19.7088L10.0701 9.2729Z" fill="#5778C5"/>
<path d="M20.7958 19.9969L26.3058 14.4878L14.3358 7.54787C13.9008 7.28686 13.3928 7.13681 12.8498 7.13681C11.5199 7.13681 10.3978 8.04189 10.0708 9.26985C10.0708 9.27089 10.0698 9.27194 10.0698 9.27298L20.7958 19.9969Z" fill="#3BAD49"/>
<path d="M43.7502 12.2243C44.4581 12.2243 45.0075 12.0287 45.3989 11.6371C45.7903 11.2457 45.9861 10.7049 45.9861 10.0146C45.9861 9.32435 45.7903 8.78352 45.3989 8.3921C45.0075 8.00048 44.4581 7.80487 43.7502 7.80487H42.7411V12.2243H43.7502ZM41.7842 6.9H43.7764C44.4202 6.9 44.9813 7.0304 45.4597 7.29142C45.9382 7.55243 46.3065 7.91939 46.5648 8.3921C46.8228 8.86481 46.9518 9.40544 46.9518 10.0146C46.9518 10.6236 46.8228 11.1646 46.5648 11.6371C46.3065 12.1098 45.9382 12.4766 45.4597 12.7376C44.9813 12.9986 44.4202 13.1292 43.7764 13.1292H41.7842V6.9Z" fill="white"/>
<path d="M51.2055 10.6409L50.5091 8.73127L50.2743 8.01782H50.222L49.9871 8.73127L49.2912 10.6409H51.2055ZM49.7002 6.9H50.7877L53.1454 13.1292H52.0928L51.5185 11.5284H48.978L48.4039 13.1292H47.3511L49.7002 6.9Z" fill="white"/>
<path d="M56.2517 9.80584C56.5706 9.80584 56.8272 9.70574 57.0218 9.50554C57.2159 9.30554 57.3131 9.07212 57.3131 8.80546C57.3131 8.5386 57.2159 8.30496 57.0218 8.10497C56.8272 7.90477 56.5706 7.80487 56.2517 7.80487H55.0424V9.80584H56.2517ZM54.0854 6.9H56.2256C56.5967 6.9 56.9374 6.98129 57.2479 7.14367C57.558 7.30604 57.8046 7.53237 57.9875 7.82222C58.1701 8.11228 58.2615 8.43996 58.2615 8.80546C58.2615 9.17054 58.1701 9.49843 57.9875 9.78828C57.8046 10.0786 57.558 10.3047 57.2479 10.467C56.9374 10.6294 56.5967 10.7107 56.2256 10.7107H55.0424V13.1292H54.0854V6.9Z" fill="white"/>
<path d="M62.1942 10.6409L61.4981 8.73127L61.2632 8.01782H61.211L60.9761 8.73127L60.28 10.6409H62.1942ZM60.689 6.9H61.7765L64.1342 13.1292H63.0816L62.5073 11.5284H59.9667L59.3927 13.1292H58.3398L60.689 6.9Z" fill="white"/>
<path d="M65.7604 7.80487H64.0117V6.9H68.4573V7.80487H66.7174V13.1292H65.7604V7.80487Z" fill="white"/>
<path d="M69.4492 6.9H70.4061V9.87543H70.4584L72.9989 6.9H74.1822V6.95224L71.9028 9.57074L74.3821 13.077V13.1292H73.2165L71.2504 10.3191L70.4061 11.3021V13.1292H69.4492V6.9Z" fill="white"/>
<path d="M78.8278 10.6409L78.1317 8.73127L77.8968 8.01782H77.8446L77.6097 8.73127L76.9138 10.6409H78.8278ZM77.3228 6.9H78.4101L80.7678 13.1292H79.7151L79.1409 11.5284H76.6005L76.0265 13.1292H74.9736L77.3228 6.9Z" fill="white"/>
<path d="M81.708 6.9H82.839L85.6577 11.4762H85.7099L85.6577 10.2756V6.9H86.606V13.1292H85.6142L82.6564 8.31812H82.6041L82.6564 9.5187V13.1292H81.708V6.9Z" fill="white"/>
<path d="M92.0083 12.2243C92.7159 12.2243 93.2655 12.0287 93.6569 11.6371C94.0483 11.2457 94.2441 10.7049 94.2441 10.0146C94.2441 9.32435 94.0483 8.78352 93.6569 8.3921C93.2655 8.00048 92.7159 7.80487 92.0083 7.80487H90.9989V12.2243H92.0083ZM90.042 6.9H92.0344C92.6782 6.9 93.2393 7.0304 93.7177 7.29142C94.1963 7.55243 94.5645 7.91939 94.8226 8.3921C95.0809 8.86481 95.2098 9.40544 95.2098 10.0146C95.2098 10.6236 95.0809 11.1646 94.8226 11.6371C94.5645 12.1098 94.1963 12.4766 93.7177 12.7376C93.2393 12.9986 92.6782 13.1292 92.0344 13.1292H90.042V6.9Z" fill="white"/>
<path d="M96.4624 6.9H97.4193V13.1292H96.4624V6.9Z" fill="white"/>
<rect x="0.5" y="0.5" width="134" height="39" rx="5.5" stroke="#A2A2A1" stroke-linejoin="round"/>
</svg>
